#N canvas 582 30 674 621 12;
#X obj 55 325 pix_texture;
#X obj 55 229 pix_video;
#X msg 142 190 dialog;
#X msg 98 139 device 0;
#N canvas 162 133 570 420 serin 0;
#X obj 205 60 cnv 20 20 20 empty \$0-open-canvas 0 4 10 0 16 -233017
-1 0;
#X obj 60 61 hradio 18 1 1 8 empty empty empty 0 -6 0 8 -225271 -1
-1 0;
#X obj 60 13 inlet;
#X msg 200 202 label \$1;
#X obj 200 180 makefilename %d;
#X obj 59 108 int;
#X obj 59 337 outlet;
#X msg 201 306 set \$1 \$2;
#X obj 59 266 trigger bang anything;
#X obj 201 286 list;
#X obj 200 225 send \$0-open-canvas;
#X msg 60 210 device \$1;
#X connect 1 0 5 0;
#X connect 2 0 1 0;
#X connect 3 0 10 0;
#X connect 4 0 3 0;
#X connect 5 0 4 0;
#X connect 5 0 11 0;
#X connect 7 0 6 0;
#X connect 8 0 6 0;
#X connect 8 1 9 0;
#X connect 9 0 7 0;
#X connect 11 0 8 0;
#X coords 0 -1 1 1 165 20 1 60 60;
#X restore 98 115 pd serin;
#N canvas 340 107 682 322 gemwin 0;
#X obj 102 122 tgl 15 0 \$0-gemstart \$0-gemstart empty 17 7 0 10 -262144
-1 -1 0 1;
#X obj 102 161 r \$0-gemstart;
#X obj 102 182 select 1 0;
#X msg 177 215 destroy;
#X obj 102 239 t a;
#X obj 318 54 inlet;
#X obj 318 255 gemwin;
#X obj 318 100 t a a;
#X obj 318 287 outlet;
#X obj 350 128 route create destroy;
#X obj 350 150 t b;
#X msg 350 172 1;
#X obj 390 150 t b;
#X msg 390 172 0;
#X obj 350 195 t f;
#X msg 350 219 set \$1;
#X text 118 122 rendering;
#X msg -20 213 dimen 720 480 \, create \, 1;
#X connect 1 0 2 0;
#X connect 2 0 17 0;
#X connect 2 1 3 0;
#X connect 3 0 4 0;
#X connect 4 0 7 0;
#X connect 5 0 7 0;
#X connect 6 0 8 0;
#X connect 7 0 6 0;
#X connect 7 1 9 0;
#X connect 9 0 10 0;
#X connect 9 1 12 0;
#X connect 10 0 11 0;
#X connect 11 0 14 0;
#X connect 12 0 13 0;
#X connect 13 0 14 0;
#X connect 14 0 15 0;
#X connect 15 0 0 0;
#X connect 17 0 4 0;
#X coords 0 -1 1 1 85 40 1 100 100;
#X restore 62 406 pd gemwin;
#X obj 55 78 gemhead 1;
#X obj 349 444 pix_snap2tex;
#X obj 342 235 gemhead 50;
#X obj 469 444 tgl 15 1 empty empty texture_on/off 20 7 0 8 -262144
-1 -1 1 1;
#X obj 380 405 spigot;
#X obj 426 405 t b f;
#X obj 412 386 tgl 15 0 empty empty empty 0 -6 0 8 -262144 -1 -1 0
1;
#X msg 468 397 0 0;
#X obj 349 385 t a b;
#X text 522 421 dimension;
#X text 496 399 offset;
#X text 404 359 drawn but before the square;
#X obj 372 352 bng 25 250 50 0 empty empty empty 0 -6 0 8 -262144 -1
-1;
#X text 402 346 SNAP! after the sphere is;
#X obj 494 311 bng 15 250 50 0 empty empty empty 17 7 0 10 -262144
-1 -1;
#X obj 403 106 bng 50 250 50 0 empty empty empty 17 7 0 10 -4034 -1
-1;
#X obj 349 469 color 1 1 1;
#X obj 55 359 rectangle 6 4;
#X obj 349 503 rectangle 6 4;
#X text 469 126 <--FOTO!;
#X msg 553 391 1;
#X obj 316 194 tgl 15 0 empty empty empty 17 7 0 10 -262144 -1 -1 0
1;
#X msg 316 156 0;
#X msg 353 167 1;
#X msg 468 421 720 480;
#X obj 315 126 delay 3000;
#X connect 0 0 23 0;
#X connect 1 0 0 0;
#X connect 2 0 1 0;
#X connect 3 0 1 0;
#X connect 4 0 3 0;
#X connect 6 0 1 0;
#X connect 7 0 22 0;
#X connect 8 0 14 0;
#X connect 9 0 7 0;
#X connect 10 0 11 0;
#X connect 11 0 7 0;
#X connect 11 1 12 0;
#X connect 12 0 10 1;
#X connect 13 0 7 1;
#X connect 14 0 7 0;
#X connect 14 1 10 0;
#X connect 18 0 12 0;
#X connect 20 0 13 0;
#X connect 20 0 30 0;
#X connect 20 0 18 0;
#X connect 20 0 26 0;
#X connect 21 0 20 0;
#X connect 21 0 29 0;
#X connect 21 0 31 0;
#X connect 22 0 24 0;
#X connect 26 0 9 0;
#X connect 27 0 8 0;
#X connect 28 0 27 0;
#X connect 29 0 27 0;
#X connect 30 0 7 2;
#X connect 31 0 28 0;
