#N canvas -8 -8 1366 695 10;
#X obj 481 592 sendOSC;
#X msg 431 633 connect localhost 3003;
#X text 536 614 Porta;
#X obj 381 68 bng 15 250 50 0 empty empty empty 17 7 0 10 -262144 -1
-1;
#X floatatom 381 139 5 0 0 0 - - -;
#X msg 553 241 send /layer1/clip1/connect 1;
#X msg 562 262 send /layer1/clip2/connect 1;
#X msg 572 283 send /layer1/clip3/connect 1;
#X msg 456 664 disconnect;
#X msg 579 304 send /layer1/clip4/connect 1;
#X msg 1019 575 send /layer1/clip5/clear 1;
#X msg 585 328 send /layer1/clip5/connect 1;
#X msg 594 350 send /layer1/clip6/connect 1;
#X msg 601 371 send /layer1/clip7/connect 1;
#X msg 609 392 send /layer1/clip8/connect 1;
#X msg 613 412 send /layer1/clip9/connect 1;
#X msg 619 433 send /layer1/clip10/connect 1;
#X msg 624 454 send /layer1/clip11/connect 1;
#X msg 630 475 send /layer1/clip12/connect 1;
#X msg 635 496 send /layer1/clip13/connect 1;
#X msg 640 516 send /layer1/clip14/connect 1;
#X msg 647 536 send /layer1/clip15/connect 1;
#X msg 297 243 send /layer1/clip16/connect 1;
#X msg 286 268 send /layer1/clip17/connect 1;
#X msg 272 289 send /layer1/clip18/connect 1;
#X msg 259 312 send /layer1/clip19/connect 1;
#X msg 240 336 send /layer1/clip20/connect 1;
#X msg 225 357 send /layer1/clip21/connect 1;
#X msg 213 377 send /layer1/clip22/connect 1;
#X msg 200 400 send /layer1/clip23/connect 1;
#X msg 188 421 send /layer1/clip24/connect 1;
#X msg 173 442 send /layer1/clip25/connect 1;
#X msg 160 464 send /layer1/clip26/connect 1;
#X msg 150 486 send /layer1/clip27/connect 1;
#X msg 133 508 send /layer1/clip28/connect 1;
#X msg 121 529 send /layer1/clip29/connect 1;
#X msg 108 549 send /layer1/clip30/connect 1;
#X obj 552 16 key;
#X obj 381 95 counter 17;
#X text 10 11 Connecting to Resolume;
#X obj 645 109 random 29;
#X floatatom 645 141 5 0 0 0 - - -;
#X obj 645 74 bng 15 250 50 0 empty empty empty 17 7 0 10 -262144 -1
-1;
#X obj 344 202 select 0 1 2 3 4 5 6 7 8 9 10 11 12 13 14 15 16 17 18
19 20 21 22 23 24 25 26 27 28;
#X connect 1 0 0 0;
#X connect 3 0 38 0;
#X connect 4 0 43 0;
#X connect 5 0 0 0;
#X connect 6 0 0 0;
#X connect 7 0 0 0;
#X connect 8 0 0 0;
#X connect 9 0 0 0;
#X connect 10 0 0 0;
#X connect 11 0 0 0;
#X connect 12 0 0 0;
#X connect 13 0 0 0;
#X connect 14 0 0 0;
#X connect 15 0 0 0;
#X connect 16 0 0 0;
#X connect 17 0 0 0;
#X connect 18 0 0 0;
#X connect 19 0 0 0;
#X connect 20 0 0 0;
#X connect 21 0 0 0;
#X connect 22 0 0 0;
#X connect 23 0 0 0;
#X connect 24 0 0 0;
#X connect 25 0 0 0;
#X connect 26 0 0 0;
#X connect 27 0 0 0;
#X connect 28 0 0 0;
#X connect 29 0 0 0;
#X connect 30 0 0 0;
#X connect 31 0 0 0;
#X connect 32 0 0 0;
#X connect 33 0 0 0;
#X connect 34 0 0 0;
#X connect 35 0 0 0;
#X connect 36 0 0 0;
#X connect 37 0 42 0;
#X connect 38 0 4 0;
#X connect 40 0 41 0;
#X connect 41 0 43 0;
#X connect 42 0 40 0;
#X connect 43 0 5 0;
#X connect 43 1 6 0;
#X connect 43 2 7 0;
#X connect 43 3 9 0;
#X connect 43 4 11 0;
#X connect 43 5 12 0;
#X connect 43 6 13 0;
#X connect 43 7 14 0;
#X connect 43 8 15 0;
#X connect 43 9 16 0;
#X connect 43 10 17 0;
#X connect 43 11 18 0;
#X connect 43 12 19 0;
#X connect 43 13 20 0;
#X connect 43 14 21 0;
#X connect 43 15 22 0;
#X connect 43 16 23 0;
#X connect 43 17 24 0;
#X connect 43 18 25 0;
#X connect 43 19 26 0;
#X connect 43 20 27 0;
#X connect 43 21 28 0;
#X connect 43 22 29 0;
#X connect 43 23 30 0;
#X connect 43 24 31 0;
#X connect 43 25 32 0;
#X connect 43 26 33 0;
#X connect 43 27 34 0;
#X connect 43 28 35 0;
#X connect 43 29 36 0;
