#N canvas 406 41 788 567 10;
#X obj 53 105 metro;
#X obj 53 157 bng 15 250 50 0 empty empty empty 17 7 0 10 -262144 -1
-1;
#X msg 102 52 stop;
#X msg 182 88 1000;
#X msg 53 51 bang;
#X obj 272 107 print;
#X msg 272 53 bac;
#X msg 313 53 olar;
#X obj 179 219 print;
#X obj 53 202 random 801;
#X msg 182 118 3000;
#X msg 182 150 5000;
#X connect 0 0 1 0;
#X connect 1 0 9 0;
#X connect 2 0 0 0;
#X connect 3 0 0 1;
#X connect 4 0 0 0;
#X connect 6 0 5 0;
#X connect 7 0 5 0;
#X connect 9 0 8 0;
#X connect 10 0 0 1;
#X connect 11 0 0 1;
