#N canvas 621 84 578 474 10;
#X obj 36 187 gemwin;
#X obj 149 182 gemhead;
#X obj 149 222 pix_video;
#X msg 36 61 dimen 640 640 \, create \, 1;
#X msg 213 182 devide 0;
#X msg 126 100 destroy;
#X msg 126 128 reset;
#X obj 149 255 pix_texture;
#X obj 149 296 rectangle 4 3;
#X connect 1 0 2 0;
#X connect 2 0 7 0;
#X connect 3 0 0 0;
#X connect 4 0 2 0;
#X connect 5 0 0 0;
#X connect 6 0 0 0;
#X connect 7 0 8 0;
