#N canvas 457 0 898 679 10;
#X obj 68 395 sendOSC;
#X msg 91 339 connect localhost 3003;
#X obj 66 122 bng 15 250 50 0 empty empty empty 17 7 0 10 -262144 -1
-1;
#X floatatom 66 182 5 0 0 0 - - -;
#X msg 221 364 disconnect;
#X obj 166 117 key;
#X obj 66 151 counter 17;
#X obj 166 169 random 29;
#X floatatom 166 195 5 0 0 0 - - -;
#X obj 166 145 bng 15 250 50 0 empty empty empty 17 7 0 10 -262144
-1 -1;
#X obj 345 342 pix_texture;
#X obj 345 301 pix_video;
#X msg 383 236 dialog;
#X msg 367 207 device 0;
#N canvas 340 107 682 322 gemwin 0;
#X obj 102 122 tgl 15 0 \$0-gemstart \$0-gemstart empty 17 7 0 10 -262144
-1 -1 0 1;
#X obj 102 161 r \$0-gemstart;
#X obj 102 182 select 1 0;
#X msg 177 215 destroy;
#X obj 102 239 t a;
#X obj 318 54 inlet;
#X obj 318 255 gemwin;
#X obj 318 100 t a a;
#X obj 318 287 outlet;
#X obj 350 128 route create destroy;
#X obj 350 150 t b;
#X msg 350 172 1;
#X obj 390 150 t b;
#X msg 390 172 0;
#X obj 350 195 t f;
#X msg 350 219 set \$1;
#X text 118 122 rendering;
#X msg -20 213 dimen 720 480 \, create \, 1;
#X connect 1 0 2 0;
#X connect 2 0 17 0;
#X connect 2 1 3 0;
#X connect 3 0 4 0;
#X connect 4 0 7 0;
#X connect 5 0 7 0;
#X connect 6 0 8 0;
#X connect 7 0 6 0;
#X connect 7 1 9 0;
#X connect 9 0 10 0;
#X connect 9 1 12 0;
#X connect 10 0 11 0;
#X connect 11 0 14 0;
#X connect 12 0 13 0;
#X connect 13 0 14 0;
#X connect 14 0 15 0;
#X connect 15 0 0 0;
#X connect 17 0 4 0;
#X coords 0 -1 1 1 85 40 1 100 100;
#X restore 66 60 pd gemwin;
#X obj 357 170 gemhead 1;
#X obj 500 433 pix_snap2tex;
#X obj 487 321 gemhead 50;
#X obj 533 393 tgl 15 1 empty empty texture_on/off 20 7 0 8 -262144
-1 -1 1 1;
#X obj 667 289 spigot;
#X obj 695 327 t b f;
#X obj 701 253 tgl 15 0 empty empty empty 0 -6 0 8 -262144 -1 -1 1
1;
#X msg 779 303 0 0;
#X obj 623 338 t a b;
#X text 802 352 dimension;
#X text 813 302 offset;
#X text 589 454 drawn but before the square;
#X obj 697 185 bng 25 250 50 0 empty empty empty 0 -6 0 8 -262144 -1
-1;
#X text 597 435 SNAP! after the sphere is;
#X obj 786 178 bng 15 250 50 0 empty empty empty 17 7 0 10 -262144
-1 -1;
#X obj 486 134 bng 50 250 50 0 empty empty empty 17 7 0 10 -4034 -1
-1;
#X obj 500 458 color 1 1 1;
#X obj 345 374 rectangle 6 4;
#X obj 500 492 rectangle 6 4;
#X text 551 135 <--FOTO!;
#X msg 781 381 1;
#X obj 487 281 tgl 15 0 empty empty empty 17 7 0 10 -262144 -1 -1 1
1;
#X msg 487 243 0;
#X msg 524 254 1;
#X msg 751 352 720 480;
#X obj 486 213 delay 3000;
#X text 403 551;
#X msg 68 282 send /layer1/clip\$1/connect 1;
#X floatatom 120 231 5 0 0 0 - - -;
#X obj 202 313 print;
#X text 10 11 Connecting to Resolume and using snap camera;
#X connect 1 0 0 0;
#X connect 2 0 6 0;
#X connect 4 0 0 0;
#X connect 5 0 9 0;
#X connect 5 0 30 0;
#X connect 6 0 3 0;
#X connect 7 0 8 0;
#X connect 8 0 43 0;
#X connect 9 0 7 0;
#X connect 10 0 32 0;
#X connect 11 0 10 0;
#X connect 12 0 11 0;
#X connect 13 0 11 0;
#X connect 15 0 11 0;
#X connect 16 0 31 0;
#X connect 17 0 23 0;
#X connect 18 0 16 0;
#X connect 19 0 20 0;
#X connect 20 0 16 0;
#X connect 20 1 21 0;
#X connect 21 0 19 1;
#X connect 22 0 16 1;
#X connect 23 0 16 0;
#X connect 23 1 19 0;
#X connect 27 0 21 0;
#X connect 29 0 22 0;
#X connect 29 0 39 0;
#X connect 29 0 27 0;
#X connect 29 0 35 0;
#X connect 30 0 29 0;
#X connect 30 0 38 0;
#X connect 30 0 40 0;
#X connect 31 0 33 0;
#X connect 35 0 18 0;
#X connect 36 0 17 0;
#X connect 37 0 36 0;
#X connect 38 0 36 0;
#X connect 39 0 16 2;
#X connect 40 0 37 0;
#X connect 42 0 0 0;
#X connect 42 0 44 0;
#X connect 43 0 42 0;
