#N canvas 496 7 804 659 10;
#X obj 419 435 dac~;
#X obj 346 390 *~ 1;
#X obj 278 354 osc~;
#X floatatom 202 321 5 0 0 0 - - -;
#X obj 140 264 mtof;
#X msg 233 210 60;
#X msg 264 224 61;
#X msg 295 233 62;
#X msg 327 241 63;
#X msg 357 250 64;
#X msg 387 262 65;
#X msg 420 274 66;
#X msg 450 284 67;
#X msg 480 298 68;
#X msg 509 310 69;
#X msg 539 323 70;
#X msg 568 334 71;
#X msg 597 349 72;
#X msg 196 201 0;
#X obj 111 52 key;
#X floatatom 200 101 5 0 0 0 - - -;
#X obj 200 146 select 49 50 51 52 53 54 55 56 57 48 39 161 186;
#X obj 74 103 bng 15 250 50 0 empty empty empty 17 7 0 10 -262144 -1
-1;
#X msg 74 202 0;
#X obj 74 148 delay 300;
#X connect 1 0 0 0;
#X connect 1 0 0 1;
#X connect 2 0 1 0;
#X connect 3 0 2 0;
#X connect 4 0 3 0;
#X connect 5 0 4 0;
#X connect 6 0 4 0;
#X connect 7 0 4 0;
#X connect 8 0 4 0;
#X connect 9 0 4 0;
#X connect 10 0 4 0;
#X connect 11 0 4 0;
#X connect 12 0 4 0;
#X connect 13 0 4 0;
#X connect 14 0 4 0;
#X connect 15 0 4 0;
#X connect 16 0 4 0;
#X connect 17 0 4 0;
#X connect 18 0 4 0;
#X connect 19 0 20 0;
#X connect 19 0 22 0;
#X connect 20 0 21 0;
#X connect 21 0 5 0;
#X connect 21 1 6 0;
#X connect 21 2 7 0;
#X connect 21 3 8 0;
#X connect 21 4 9 0;
#X connect 21 5 10 0;
#X connect 21 6 11 0;
#X connect 21 7 12 0;
#X connect 21 8 13 0;
#X connect 21 9 14 0;
#X connect 21 10 15 0;
#X connect 21 11 16 0;
#X connect 21 12 17 0;
#X connect 21 13 18 0;
#X connect 22 0 24 0;
#X connect 23 0 4 0;
#X connect 24 0 23 0;
